<?xml version="1.0" encoding="iso-8859-1"?>
<!-- Generator: Adobe Illustrator 19.0.0, SVG Export Plug-In . SVG Version: 6.00 Build 0)  -->
<svg version="1.1" id="Capa_1" xmlns="http://www.w3.org/2000/svg" xmlns:xlink="http://www.w3.org/1999/xlink" x="0px" y="0px"
	 viewBox="0 0 480 480" style="enable-background:new 0 0 480 480;" xml:space="preserve">
<g>
	
		<linearGradient id="SVGID_1_" gradientUnits="userSpaceOnUse" x1="-59.191" y1="607.625" x2="27.895" y2="607.625" gradientTransform="matrix(8 0 0 -8 455 4941)">
		<stop  offset="0" style="stop-color:#E93E3A"/>
		<stop  offset="0.353" style="stop-color:#ED683C"/>
		<stop  offset="0.703" style="stop-color:#F3903F"/>
		<stop  offset="1" style="stop-color:#FDC70C"/>
	</linearGradient>
	<path style="fill:url(#SVGID_1_);" d="M40,48v64c0,4.418,3.582,8,8,8h64c4.418,0,8-3.582,8-8V48c0-4.418-3.582-8-8-8H48
		C43.582,40,40,43.582,40,48z M56,56h48v48H56V56z"/>
	
		<linearGradient id="SVGID_2_" gradientUnits="userSpaceOnUse" x1="-59.191" y1="607.625" x2="27.895" y2="607.625" gradientTransform="matrix(8 0 0 -8 455 4941)">
		<stop  offset="0" style="stop-color:#E93E3A"/>
		<stop  offset="0.353" style="stop-color:#ED683C"/>
		<stop  offset="0.703" style="stop-color:#F3903F"/>
		<stop  offset="1" style="stop-color:#FDC70C"/>
	</linearGradient>
	<path style="fill:url(#SVGID_2_);" d="M368,120h64c4.418,0,8-3.582,8-8V48c0-4.418-3.582-8-8-8h-64c-4.418,0-8,3.582-8,8v64
		C360,116.418,363.582,120,368,120z M376,56h48v48h-48V56z"/>
</g>
<linearGradient id="SVGID_3_" gradientUnits="userSpaceOnUse" x1="-59.191" y1="567.625" x2="27.895" y2="567.625" gradientTransform="matrix(8 0 0 -8 455 4941)">
	<stop  offset="0" style="stop-color:#E93E3A"/>
	<stop  offset="0.353" style="stop-color:#ED683C"/>
	<stop  offset="0.703" style="stop-color:#F3903F"/>
	<stop  offset="1" style="stop-color:#FDC70C"/>
</linearGradient>
<path style="fill:url(#SVGID_3_);" d="M112,360H48c-4.418,0-8,3.582-8,8v64c0,4.418,3.582,8,8,8h64c4.418,0,8-3.582,8-8v-64
	C120,363.582,116.418,360,112,360z M104,424H56v-48h48V424z"/>
<linearGradient id="SVGID_4_" gradientUnits="userSpaceOnUse" x1="-59.191" y1="607.625" x2="27.895" y2="607.625" gradientTransform="matrix(8 0 0 -8 455 4941)">
	<stop  offset="0" style="stop-color:#E93E3A"/>
	<stop  offset="0.353" style="stop-color:#ED683C"/>
	<stop  offset="0.703" style="stop-color:#F3903F"/>
	<stop  offset="1" style="stop-color:#FDC70C"/>
</linearGradient>
<path style="fill:url(#SVGID_4_);" d="M72,72h16v16H72V72z"/>
<g>
	
		<linearGradient id="SVGID_5_" gradientUnits="userSpaceOnUse" x1="-59.191" y1="612.625" x2="27.895" y2="612.625" gradientTransform="matrix(8 0 0 -8 455 4941)">
		<stop  offset="0" style="stop-color:#E93E3A"/>
		<stop  offset="0.353" style="stop-color:#ED683C"/>
		<stop  offset="0.703" style="stop-color:#F3903F"/>
		<stop  offset="1" style="stop-color:#FDC70C"/>
	</linearGradient>
	<path style="fill:url(#SVGID_5_);" d="M16,16h64V0H8C3.582,0,0,3.582,0,8v72h16V16z"/>
	
		<linearGradient id="SVGID_6_" gradientUnits="userSpaceOnUse" x1="-59.191" y1="562.625" x2="27.895" y2="562.625" gradientTransform="matrix(8 0 0 -8 455 4941)">
		<stop  offset="0" style="stop-color:#E93E3A"/>
		<stop  offset="0.353" style="stop-color:#ED683C"/>
		<stop  offset="0.703" style="stop-color:#F3903F"/>
		<stop  offset="1" style="stop-color:#FDC70C"/>
	</linearGradient>
	<path style="fill:url(#SVGID_6_);" d="M16,400H0v72c0,4.418,3.582,8,8,8h72v-16H16V400z"/>
	
		<linearGradient id="SVGID_7_" gradientUnits="userSpaceOnUse" x1="-59.191" y1="612.625" x2="27.895" y2="612.625" gradientTransform="matrix(8 0 0 -8 455 4941)">
		<stop  offset="0" style="stop-color:#E93E3A"/>
		<stop  offset="0.353" style="stop-color:#ED683C"/>
		<stop  offset="0.703" style="stop-color:#F3903F"/>
		<stop  offset="1" style="stop-color:#FDC70C"/>
	</linearGradient>
	<path style="fill:url(#SVGID_7_);" d="M472,0h-72v16h64v64h16V8C480,3.582,476.418,0,472,0z"/>
	
		<linearGradient id="SVGID_8_" gradientUnits="userSpaceOnUse" x1="-59.191" y1="562.625" x2="27.895" y2="562.625" gradientTransform="matrix(8 0 0 -8 455 4941)">
		<stop  offset="0" style="stop-color:#E93E3A"/>
		<stop  offset="0.353" style="stop-color:#ED683C"/>
		<stop  offset="0.703" style="stop-color:#F3903F"/>
		<stop  offset="1" style="stop-color:#FDC70C"/>
	</linearGradient>
	<path style="fill:url(#SVGID_8_);" d="M464,464h-48v16h56c4.418,0,8-3.582,8-8v-72h-16V464z"/>
</g>
<linearGradient id="SVGID_9_" gradientUnits="userSpaceOnUse" x1="-59.191" y1="607.625" x2="27.895" y2="607.625" gradientTransform="matrix(8 0 0 -8 455 4941)">
	<stop  offset="0" style="stop-color:#E93E3A"/>
	<stop  offset="0.353" style="stop-color:#ED683C"/>
	<stop  offset="0.703" style="stop-color:#F3903F"/>
	<stop  offset="1" style="stop-color:#FDC70C"/>
</linearGradient>
<path style="fill:url(#SVGID_9_);" d="M392,72h16v16h-16V72z"/>
<linearGradient id="SVGID_10_" gradientUnits="userSpaceOnUse" x1="-59.191" y1="567.625" x2="27.895" y2="567.625" gradientTransform="matrix(8 0 0 -8 455 4941)">
	<stop  offset="0" style="stop-color:#E93E3A"/>
	<stop  offset="0.353" style="stop-color:#ED683C"/>
	<stop  offset="0.703" style="stop-color:#F3903F"/>
	<stop  offset="1" style="stop-color:#FDC70C"/>
</linearGradient>
<path style="fill:url(#SVGID_10_);" d="M72,392h16v16H72V392z"/>
<g>
	
		<linearGradient id="SVGID_11_" gradientUnits="userSpaceOnUse" x1="-59.191" y1="607.625" x2="27.895" y2="607.625" gradientTransform="matrix(8 0 0 -8 455 4941)">
		<stop  offset="0" style="stop-color:#E93E3A"/>
		<stop  offset="0.353" style="stop-color:#ED683C"/>
		<stop  offset="0.703" style="stop-color:#F3903F"/>
		<stop  offset="1" style="stop-color:#FDC70C"/>
	</linearGradient>
	<path style="fill:url(#SVGID_11_);" d="M136,72h16v16h-16V72z"/>
	
		<linearGradient id="SVGID_12_" gradientUnits="userSpaceOnUse" x1="-59.191" y1="607.625" x2="27.895" y2="607.625" gradientTransform="matrix(8 0 0 -8 455 4941)">
		<stop  offset="0" style="stop-color:#E93E3A"/>
		<stop  offset="0.353" style="stop-color:#ED683C"/>
		<stop  offset="0.703" style="stop-color:#F3903F"/>
		<stop  offset="1" style="stop-color:#FDC70C"/>
	</linearGradient>
	<path style="fill:url(#SVGID_12_);" d="M248,72h16v16h-16V72z"/>
</g>
<g>
	
		<linearGradient id="SVGID_13_" gradientUnits="userSpaceOnUse" x1="-59.191" y1="606.625" x2="27.895" y2="606.625" gradientTransform="matrix(8 0 0 -8 455 4941)">
		<stop  offset="0" style="stop-color:#E93E3A"/>
		<stop  offset="0.353" style="stop-color:#ED683C"/>
		<stop  offset="0.703" style="stop-color:#F3903F"/>
		<stop  offset="1" style="stop-color:#FDC70C"/>
	</linearGradient>
	<path style="fill:url(#SVGID_13_);" d="M280,72v32h32V88h-16V72H280z"/>
	
		<linearGradient id="SVGID_14_" gradientUnits="userSpaceOnUse" x1="-59.191" y1="609.625" x2="27.895" y2="609.625" gradientTransform="matrix(8 0 0 -8 455 4941)">
		<stop  offset="0" style="stop-color:#E93E3A"/>
		<stop  offset="0.353" style="stop-color:#ED683C"/>
		<stop  offset="0.703" style="stop-color:#F3903F"/>
		<stop  offset="1" style="stop-color:#FDC70C"/>
	</linearGradient>
	<path style="fill:url(#SVGID_14_);" d="M168,72v16h16V72V56h128v16h16V56V40H152v16h16V72z"/>
	
		<linearGradient id="SVGID_15_" gradientUnits="userSpaceOnUse" x1="-59.191" y1="602.625" x2="27.895" y2="602.625" gradientTransform="matrix(8 0 0 -8 455 4941)">
		<stop  offset="0" style="stop-color:#E93E3A"/>
		<stop  offset="0.353" style="stop-color:#ED683C"/>
		<stop  offset="0.703" style="stop-color:#F3903F"/>
		<stop  offset="1" style="stop-color:#FDC70C"/>
	</linearGradient>
	<path style="fill:url(#SVGID_15_);" d="M136,104h16v32h-16V104z"/>
	
		<linearGradient id="SVGID_16_" gradientUnits="userSpaceOnUse" x1="-59.191" y1="599.625" x2="27.895" y2="599.625" gradientTransform="matrix(8 0 0 -8 455 4941)">
		<stop  offset="0" style="stop-color:#E93E3A"/>
		<stop  offset="0.353" style="stop-color:#ED683C"/>
		<stop  offset="0.703" style="stop-color:#F3903F"/>
		<stop  offset="1" style="stop-color:#FDC70C"/>
	</linearGradient>
	<path style="fill:url(#SVGID_16_);" d="M152,136h16v16h-16V136z"/>
	
		<linearGradient id="SVGID_17_" gradientUnits="userSpaceOnUse" x1="-59.191" y1="604.625" x2="27.895" y2="604.625" gradientTransform="matrix(8 0 0 -8 455 4941)">
		<stop  offset="0" style="stop-color:#E93E3A"/>
		<stop  offset="0.353" style="stop-color:#ED683C"/>
		<stop  offset="0.703" style="stop-color:#F3903F"/>
		<stop  offset="1" style="stop-color:#FDC70C"/>
	</linearGradient>
	<path style="fill:url(#SVGID_17_);" d="M168,104v16h16v16h32v-32h8V88h8V72h-32v16h8v16H168z"/>
	
		<linearGradient id="SVGID_18_" gradientUnits="userSpaceOnUse" x1="-59.191" y1="601.625" x2="27.895" y2="601.625" gradientTransform="matrix(8 0 0 -8 455 4941)">
		<stop  offset="0" style="stop-color:#E93E3A"/>
		<stop  offset="0.353" style="stop-color:#ED683C"/>
		<stop  offset="0.703" style="stop-color:#F3903F"/>
		<stop  offset="1" style="stop-color:#FDC70C"/>
	</linearGradient>
	<path style="fill:url(#SVGID_18_);" d="M232,120h16v16h-16V120z"/>
	
		<linearGradient id="SVGID_19_" gradientUnits="userSpaceOnUse" x1="-59.191" y1="594.625" x2="27.895" y2="594.625" gradientTransform="matrix(8 0 0 -8 455 4941)">
		<stop  offset="0" style="stop-color:#E93E3A"/>
		<stop  offset="0.353" style="stop-color:#ED683C"/>
		<stop  offset="0.703" style="stop-color:#F3903F"/>
		<stop  offset="1" style="stop-color:#FDC70C"/>
	</linearGradient>
	<path style="fill:url(#SVGID_19_);" d="M320,168v32h16v-16h16v-16H320z"/>
	
		<linearGradient id="SVGID_20_" gradientUnits="userSpaceOnUse" x1="-59.191" y1="603.625" x2="27.895" y2="603.625" gradientTransform="matrix(8 0 0 -8 455 4941)">
		<stop  offset="0" style="stop-color:#E93E3A"/>
		<stop  offset="0.353" style="stop-color:#ED683C"/>
		<stop  offset="0.703" style="stop-color:#F3903F"/>
		<stop  offset="1" style="stop-color:#FDC70C"/>
	</linearGradient>
	<path style="fill:url(#SVGID_20_);" d="M248,104h16v16h-16V104z"/>
	
		<linearGradient id="SVGID_21_" gradientUnits="userSpaceOnUse" x1="-59.191" y1="572.625" x2="27.895" y2="572.625" gradientTransform="matrix(8 0 0 -8 455 4941)">
		<stop  offset="0" style="stop-color:#E93E3A"/>
		<stop  offset="0.353" style="stop-color:#ED683C"/>
		<stop  offset="0.703" style="stop-color:#F3903F"/>
		<stop  offset="1" style="stop-color:#FDC70C"/>
	</linearGradient>
	<path style="fill:url(#SVGID_21_);" d="M168,376h32v-16h-16v-16h-16V376z"/>
	
		<linearGradient id="SVGID_22_" gradientUnits="userSpaceOnUse" x1="-59.191" y1="605.625" x2="27.895" y2="605.625" gradientTransform="matrix(8 0 0 -8 455 4941)">
		<stop  offset="0" style="stop-color:#E93E3A"/>
		<stop  offset="0.353" style="stop-color:#ED683C"/>
		<stop  offset="0.703" style="stop-color:#F3903F"/>
		<stop  offset="1" style="stop-color:#FDC70C"/>
	</linearGradient>
	<path style="fill:url(#SVGID_22_);" d="M328,88h16v16h-16V88z"/>
	
		<linearGradient id="SVGID_23_" gradientUnits="userSpaceOnUse" x1="-59.191" y1="600.625" x2="27.895" y2="600.625" gradientTransform="matrix(8 0 0 -8 455 4941)">
		<stop  offset="0" style="stop-color:#E93E3A"/>
		<stop  offset="0.353" style="stop-color:#ED683C"/>
		<stop  offset="0.703" style="stop-color:#F3903F"/>
		<stop  offset="1" style="stop-color:#FDC70C"/>
	</linearGradient>
	<path style="fill:url(#SVGID_23_);" d="M320,120h32v32h-32V120z"/>
	
		<linearGradient id="SVGID_24_" gradientUnits="userSpaceOnUse" x1="-59.191" y1="581.625" x2="27.895" y2="581.625" gradientTransform="matrix(8 0 0 -8 455 4941)">
		<stop  offset="0" style="stop-color:#E93E3A"/>
		<stop  offset="0.353" style="stop-color:#ED683C"/>
		<stop  offset="0.703" style="stop-color:#F3903F"/>
		<stop  offset="1" style="stop-color:#FDC70C"/>
	</linearGradient>
	<path style="fill:url(#SVGID_24_);" d="M40,248v80h16v-64h16v-16H40z"/>
	
		<linearGradient id="SVGID_25_" gradientUnits="userSpaceOnUse" x1="-59.191" y1="599.625" x2="27.895" y2="599.625" gradientTransform="matrix(8 0 0 -8 455 4941)">
		<stop  offset="0" style="stop-color:#E93E3A"/>
		<stop  offset="0.353" style="stop-color:#ED683C"/>
		<stop  offset="0.703" style="stop-color:#F3903F"/>
		<stop  offset="1" style="stop-color:#FDC70C"/>
	</linearGradient>
	<path style="fill:url(#SVGID_25_);" d="M40,136h80v16H40V136z"/>
	
		<linearGradient id="SVGID_26_" gradientUnits="userSpaceOnUse" x1="-59.191" y1="593.625" x2="27.895" y2="593.625" gradientTransform="matrix(8 0 0 -8 455 4941)">
		<stop  offset="0" style="stop-color:#E93E3A"/>
		<stop  offset="0.353" style="stop-color:#ED683C"/>
		<stop  offset="0.703" style="stop-color:#F3903F"/>
		<stop  offset="1" style="stop-color:#FDC70C"/>
	</linearGradient>
	<path style="fill:url(#SVGID_26_);" d="M72,168H40v48h16v-16h16V168z"/>
	
		<linearGradient id="SVGID_27_" gradientUnits="userSpaceOnUse" x1="-59.191" y1="592.625" x2="27.895" y2="592.625" gradientTransform="matrix(8 0 0 -8 455 4941)">
		<stop  offset="0" style="stop-color:#E93E3A"/>
		<stop  offset="0.353" style="stop-color:#ED683C"/>
		<stop  offset="0.703" style="stop-color:#F3903F"/>
		<stop  offset="1" style="stop-color:#FDC70C"/>
	</linearGradient>
	<path style="fill:url(#SVGID_27_);" d="M200,248v-16h16v-32h16v-16h16v-16h-16v-16h-16v16v16h-16v-16h-32v32h16v48H200z"/>
	
		<linearGradient id="SVGID_28_" gradientUnits="userSpaceOnUse" x1="-59.191" y1="565.625" x2="27.895" y2="565.625" gradientTransform="matrix(8 0 0 -8 455 4941)">
		<stop  offset="0" style="stop-color:#E93E3A"/>
		<stop  offset="0.353" style="stop-color:#ED683C"/>
		<stop  offset="0.703" style="stop-color:#F3903F"/>
		<stop  offset="1" style="stop-color:#FDC70C"/>
	</linearGradient>
	<path style="fill:url(#SVGID_28_);" d="M136,440h16v-16h24v16h16v-16h8v-16h-48v-16h-16V440z"/>
	
		<linearGradient id="SVGID_29_" gradientUnits="userSpaceOnUse" x1="-59.191" y1="587.625" x2="27.895" y2="587.625" gradientTransform="matrix(8 0 0 -8 455 4941)">
		<stop  offset="0" style="stop-color:#E93E3A"/>
		<stop  offset="0.353" style="stop-color:#ED683C"/>
		<stop  offset="0.703" style="stop-color:#F3903F"/>
		<stop  offset="1" style="stop-color:#FDC70C"/>
	</linearGradient>
	<path style="fill:url(#SVGID_29_);" d="M304,272v-16h16v-16h16v-32h-48v32h-16v16h16v16H304z"/>
	
		<linearGradient id="SVGID_30_" gradientUnits="userSpaceOnUse" x1="-59.191" y1="596.625" x2="27.895" y2="596.625" gradientTransform="matrix(8 0 0 -8 455 4941)">
		<stop  offset="0" style="stop-color:#E93E3A"/>
		<stop  offset="0.353" style="stop-color:#ED683C"/>
		<stop  offset="0.703" style="stop-color:#F3903F"/>
		<stop  offset="1" style="stop-color:#FDC70C"/>
	</linearGradient>
	<path style="fill:url(#SVGID_30_);" d="M280,176h16v-16h-16v-16h-16v48h16V176z"/>
	
		<linearGradient id="SVGID_31_" gradientUnits="userSpaceOnUse" x1="-59.191" y1="595.625" x2="27.895" y2="595.625" gradientTransform="matrix(8 0 0 -8 455 4941)">
		<stop  offset="0" style="stop-color:#E93E3A"/>
		<stop  offset="0.353" style="stop-color:#ED683C"/>
		<stop  offset="0.703" style="stop-color:#F3903F"/>
		<stop  offset="1" style="stop-color:#FDC70C"/>
	</linearGradient>
	<path style="fill:url(#SVGID_31_);" d="M88,168h32v16H88V168z"/>
	
		<linearGradient id="SVGID_32_" gradientUnits="userSpaceOnUse" x1="-59.191" y1="595.625" x2="27.895" y2="595.625" gradientTransform="matrix(8 0 0 -8 455 4941)">
		<stop  offset="0" style="stop-color:#E93E3A"/>
		<stop  offset="0.353" style="stop-color:#ED683C"/>
		<stop  offset="0.703" style="stop-color:#F3903F"/>
		<stop  offset="1" style="stop-color:#FDC70C"/>
	</linearGradient>
	<path style="fill:url(#SVGID_32_);" d="M136,168h16v16h-16V168z"/>
	
		<linearGradient id="SVGID_33_" gradientUnits="userSpaceOnUse" x1="-59.191" y1="585.625" x2="27.895" y2="585.625" gradientTransform="matrix(8 0 0 -8 455 4941)">
		<stop  offset="0" style="stop-color:#E93E3A"/>
		<stop  offset="0.353" style="stop-color:#ED683C"/>
		<stop  offset="0.703" style="stop-color:#F3903F"/>
		<stop  offset="1" style="stop-color:#FDC70C"/>
	</linearGradient>
	<path style="fill:url(#SVGID_33_);" d="M88,248h16v16H88V248z"/>
	
		<linearGradient id="SVGID_34_" gradientUnits="userSpaceOnUse" x1="-59.191" y1="583.625" x2="27.895" y2="583.625" gradientTransform="matrix(8 0 0 -8 455 4941)">
		<stop  offset="0" style="stop-color:#E93E3A"/>
		<stop  offset="0.353" style="stop-color:#ED683C"/>
		<stop  offset="0.703" style="stop-color:#F3903F"/>
		<stop  offset="1" style="stop-color:#FDC70C"/>
	</linearGradient>
	<path style="fill:url(#SVGID_34_);" d="M136,264h16v16h-16V264z"/>
	
		<linearGradient id="SVGID_35_" gradientUnits="userSpaceOnUse" x1="-59.191" y1="585.625" x2="27.895" y2="585.625" gradientTransform="matrix(8 0 0 -8 455 4941)">
		<stop  offset="0" style="stop-color:#E93E3A"/>
		<stop  offset="0.353" style="stop-color:#ED683C"/>
		<stop  offset="0.703" style="stop-color:#F3903F"/>
		<stop  offset="1" style="stop-color:#FDC70C"/>
	</linearGradient>
	<path style="fill:url(#SVGID_35_);" d="M152,248h16v16h-16V248z"/>
	
		<linearGradient id="SVGID_36_" gradientUnits="userSpaceOnUse" x1="-59.191" y1="569.625" x2="27.895" y2="569.625" gradientTransform="matrix(8 0 0 -8 455 4941)">
		<stop  offset="0" style="stop-color:#E93E3A"/>
		<stop  offset="0.353" style="stop-color:#ED683C"/>
		<stop  offset="0.703" style="stop-color:#F3903F"/>
		<stop  offset="1" style="stop-color:#FDC70C"/>
	</linearGradient>
	<path style="fill:url(#SVGID_36_);" d="M152,376h16v16h-16V376z"/>
	
		<linearGradient id="SVGID_37_" gradientUnits="userSpaceOnUse" x1="-59.191" y1="589.625" x2="27.895" y2="589.625" gradientTransform="matrix(8 0 0 -8 455 4941)">
		<stop  offset="0" style="stop-color:#E93E3A"/>
		<stop  offset="0.353" style="stop-color:#ED683C"/>
		<stop  offset="0.703" style="stop-color:#F3903F"/>
		<stop  offset="1" style="stop-color:#FDC70C"/>
	</linearGradient>
	<path style="fill:url(#SVGID_37_);" d="M72,216h16v16H72V216z"/>
	
		<linearGradient id="SVGID_38_" gradientUnits="userSpaceOnUse" x1="-59.191" y1="591.625" x2="27.895" y2="591.625" gradientTransform="matrix(8 0 0 -8 455 4941)">
		<stop  offset="0" style="stop-color:#E93E3A"/>
		<stop  offset="0.353" style="stop-color:#ED683C"/>
		<stop  offset="0.703" style="stop-color:#F3903F"/>
		<stop  offset="1" style="stop-color:#FDC70C"/>
	</linearGradient>
	<path style="fill:url(#SVGID_38_);" d="M88,200h32v16H88V200z"/>
	
		<linearGradient id="SVGID_39_" gradientUnits="userSpaceOnUse" x1="-59.191" y1="589.625" x2="27.895" y2="589.625" gradientTransform="matrix(8 0 0 -8 455 4941)">
		<stop  offset="0" style="stop-color:#E93E3A"/>
		<stop  offset="0.353" style="stop-color:#ED683C"/>
		<stop  offset="0.703" style="stop-color:#F3903F"/>
		<stop  offset="1" style="stop-color:#FDC70C"/>
	</linearGradient>
	<path style="fill:url(#SVGID_39_);" d="M120,216h16v16h-16V216z"/>
	
		<linearGradient id="SVGID_40_" gradientUnits="userSpaceOnUse" x1="-59.191" y1="590.625" x2="27.895" y2="590.625" gradientTransform="matrix(8 0 0 -8 455 4941)">
		<stop  offset="0" style="stop-color:#E93E3A"/>
		<stop  offset="0.353" style="stop-color:#ED683C"/>
		<stop  offset="0.703" style="stop-color:#F3903F"/>
		<stop  offset="1" style="stop-color:#FDC70C"/>
	</linearGradient>
	<path style="fill:url(#SVGID_40_);" d="M248,208h16v16h-16V208z"/>
	
		<linearGradient id="SVGID_41_" gradientUnits="userSpaceOnUse" x1="-59.191" y1="588.625" x2="27.895" y2="588.625" gradientTransform="matrix(8 0 0 -8 455 4941)">
		<stop  offset="0" style="stop-color:#E93E3A"/>
		<stop  offset="0.353" style="stop-color:#ED683C"/>
		<stop  offset="0.703" style="stop-color:#F3903F"/>
		<stop  offset="1" style="stop-color:#FDC70C"/>
	</linearGradient>
	<path style="fill:url(#SVGID_41_);" d="M232,224h16v16h-16V224z"/>
	
		<linearGradient id="SVGID_42_" gradientUnits="userSpaceOnUse" x1="-59.191" y1="583.625" x2="27.895" y2="583.625" gradientTransform="matrix(8 0 0 -8 455 4941)">
		<stop  offset="0" style="stop-color:#E93E3A"/>
		<stop  offset="0.353" style="stop-color:#ED683C"/>
		<stop  offset="0.703" style="stop-color:#F3903F"/>
		<stop  offset="1" style="stop-color:#FDC70C"/>
	</linearGradient>
	<path style="fill:url(#SVGID_42_);" d="M256,264h16v16h-16V264z"/>
	
		<linearGradient id="SVGID_43_" gradientUnits="userSpaceOnUse" x1="-59.191" y1="585.625" x2="27.895" y2="585.625" gradientTransform="matrix(8 0 0 -8 455 4941)">
		<stop  offset="0" style="stop-color:#E93E3A"/>
		<stop  offset="0.353" style="stop-color:#ED683C"/>
		<stop  offset="0.703" style="stop-color:#F3903F"/>
		<stop  offset="1" style="stop-color:#FDC70C"/>
	</linearGradient>
	<path style="fill:url(#SVGID_43_);" d="M360,248h32v16h-32V248z"/>
	
		<linearGradient id="SVGID_44_" gradientUnits="userSpaceOnUse" x1="-59.191" y1="583.625" x2="27.895" y2="583.625" gradientTransform="matrix(8 0 0 -8 455 4941)">
		<stop  offset="0" style="stop-color:#E93E3A"/>
		<stop  offset="0.353" style="stop-color:#ED683C"/>
		<stop  offset="0.703" style="stop-color:#F3903F"/>
		<stop  offset="1" style="stop-color:#FDC70C"/>
	</linearGradient>
	<path style="fill:url(#SVGID_44_);" d="M392,264h16v16h-16V264z"/>
	
		<linearGradient id="SVGID_45_" gradientUnits="userSpaceOnUse" x1="-59.191" y1="583.625" x2="27.895" y2="583.625" gradientTransform="matrix(8 0 0 -8 455 4941)">
		<stop  offset="0" style="stop-color:#E93E3A"/>
		<stop  offset="0.353" style="stop-color:#ED683C"/>
		<stop  offset="0.703" style="stop-color:#F3903F"/>
		<stop  offset="1" style="stop-color:#FDC70C"/>
	</linearGradient>
	<path style="fill:url(#SVGID_45_);" d="M224,264h16v16h-16V264z"/>
	
		<linearGradient id="SVGID_46_" gradientUnits="userSpaceOnUse" x1="-59.191" y1="582.625" x2="27.895" y2="582.625" gradientTransform="matrix(8 0 0 -8 455 4941)">
		<stop  offset="0" style="stop-color:#E93E3A"/>
		<stop  offset="0.353" style="stop-color:#ED683C"/>
		<stop  offset="0.703" style="stop-color:#F3903F"/>
		<stop  offset="1" style="stop-color:#FDC70C"/>
	</linearGradient>
	<path style="fill:url(#SVGID_46_);" d="M216,264h-32v16h-16v16h32v-16h16V264z"/>
	
		<linearGradient id="SVGID_47_" gradientUnits="userSpaceOnUse" x1="-59.191" y1="564.625" x2="27.895" y2="564.625" gradientTransform="matrix(8 0 0 -8 455 4941)">
		<stop  offset="0" style="stop-color:#E93E3A"/>
		<stop  offset="0.353" style="stop-color:#ED683C"/>
		<stop  offset="0.703" style="stop-color:#F3903F"/>
		<stop  offset="1" style="stop-color:#FDC70C"/>
	</linearGradient>
	<path style="fill:url(#SVGID_47_);" d="M232,408v16h-16v16h32v-16h16v-16H232z"/>
	
		<linearGradient id="SVGID_48_" gradientUnits="userSpaceOnUse" x1="-59.191" y1="564.625" x2="27.895" y2="564.625" gradientTransform="matrix(8 0 0 -8 455 4941)">
		<stop  offset="0" style="stop-color:#E93E3A"/>
		<stop  offset="0.353" style="stop-color:#ED683C"/>
		<stop  offset="0.703" style="stop-color:#F3903F"/>
		<stop  offset="1" style="stop-color:#FDC70C"/>
	</linearGradient>
	<path style="fill:url(#SVGID_48_);" d="M312,408v16h-16v16h32v-16h16v-16H312z"/>
	
		<linearGradient id="SVGID_49_" gradientUnits="userSpaceOnUse" x1="-59.191" y1="598.625" x2="27.895" y2="598.625" gradientTransform="matrix(8 0 0 -8 455 4941)">
		<stop  offset="0" style="stop-color:#E93E3A"/>
		<stop  offset="0.353" style="stop-color:#ED683C"/>
		<stop  offset="0.703" style="stop-color:#F3903F"/>
		<stop  offset="1" style="stop-color:#FDC70C"/>
	</linearGradient>
	<path style="fill:url(#SVGID_49_);" d="M384,168v-16h16v-16h-32v16h-16v16H384z"/>
	
		<linearGradient id="SVGID_50_" gradientUnits="userSpaceOnUse" x1="-59.191" y1="576.625" x2="27.895" y2="576.625" gradientTransform="matrix(8 0 0 -8 455 4941)">
		<stop  offset="0" style="stop-color:#E93E3A"/>
		<stop  offset="0.353" style="stop-color:#ED683C"/>
		<stop  offset="0.703" style="stop-color:#F3903F"/>
		<stop  offset="1" style="stop-color:#FDC70C"/>
	</linearGradient>
	<path style="fill:url(#SVGID_50_);" d="M240,320h16v16h-16V320z"/>
	
		<linearGradient id="SVGID_51_" gradientUnits="userSpaceOnUse" x1="-59.191" y1="572.625" x2="27.895" y2="572.625" gradientTransform="matrix(8 0 0 -8 455 4941)">
		<stop  offset="0" style="stop-color:#E93E3A"/>
		<stop  offset="0.353" style="stop-color:#ED683C"/>
		<stop  offset="0.703" style="stop-color:#F3903F"/>
		<stop  offset="1" style="stop-color:#FDC70C"/>
	</linearGradient>
	<path style="fill:url(#SVGID_51_);" d="M240,352h16v16h-16V352z"/>
	
		<linearGradient id="SVGID_52_" gradientUnits="userSpaceOnUse" x1="-59.191" y1="567.625" x2="27.895" y2="567.625" gradientTransform="matrix(8 0 0 -8 455 4941)">
		<stop  offset="0" style="stop-color:#E93E3A"/>
		<stop  offset="0.353" style="stop-color:#ED683C"/>
		<stop  offset="0.703" style="stop-color:#F3903F"/>
		<stop  offset="1" style="stop-color:#FDC70C"/>
	</linearGradient>
	<path style="fill:url(#SVGID_52_);" d="M216,392h16v16h-16V392z"/>
	
		<linearGradient id="SVGID_53_" gradientUnits="userSpaceOnUse" x1="-59.191" y1="577.625" x2="27.895" y2="577.625" gradientTransform="matrix(8 0 0 -8 455 4941)">
		<stop  offset="0" style="stop-color:#E93E3A"/>
		<stop  offset="0.353" style="stop-color:#ED683C"/>
		<stop  offset="0.703" style="stop-color:#F3903F"/>
		<stop  offset="1" style="stop-color:#FDC70C"/>
	</linearGradient>
	<path style="fill:url(#SVGID_53_);" d="M224,320v-16h-16v16v16h16V320z"/>
	
		<linearGradient id="SVGID_54_" gradientUnits="userSpaceOnUse" x1="-59.191" y1="570.625" x2="27.895" y2="570.625" gradientTransform="matrix(8 0 0 -8 455 4941)">
		<stop  offset="0" style="stop-color:#E93E3A"/>
		<stop  offset="0.353" style="stop-color:#ED683C"/>
		<stop  offset="0.703" style="stop-color:#F3903F"/>
		<stop  offset="1" style="stop-color:#FDC70C"/>
	</linearGradient>
	<path style="fill:url(#SVGID_54_);" d="M256,368h16v16h-16V368z"/>
	
		<linearGradient id="SVGID_55_" gradientUnits="userSpaceOnUse" x1="-59.191" y1="564.625" x2="27.895" y2="564.625" gradientTransform="matrix(8 0 0 -8 455 4941)">
		<stop  offset="0" style="stop-color:#E93E3A"/>
		<stop  offset="0.353" style="stop-color:#ED683C"/>
		<stop  offset="0.703" style="stop-color:#F3903F"/>
		<stop  offset="1" style="stop-color:#FDC70C"/>
	</linearGradient>
	<path style="fill:url(#SVGID_55_);" d="M376,424h-32v16h48v-32h-16V424z"/>
	
		<linearGradient id="SVGID_56_" gradientUnits="userSpaceOnUse" x1="-59.191" y1="569.625" x2="27.895" y2="569.625" gradientTransform="matrix(8 0 0 -8 455 4941)">
		<stop  offset="0" style="stop-color:#E93E3A"/>
		<stop  offset="0.353" style="stop-color:#ED683C"/>
		<stop  offset="0.703" style="stop-color:#F3903F"/>
		<stop  offset="1" style="stop-color:#FDC70C"/>
	</linearGradient>
	<path style="fill:url(#SVGID_56_);" d="M376,376h16v16h-16V376z"/>
	
		<linearGradient id="SVGID_57_" gradientUnits="userSpaceOnUse" x1="-59.191" y1="569.625" x2="27.895" y2="569.625" gradientTransform="matrix(8 0 0 -8 455 4941)">
		<stop  offset="0" style="stop-color:#E93E3A"/>
		<stop  offset="0.353" style="stop-color:#ED683C"/>
		<stop  offset="0.703" style="stop-color:#F3903F"/>
		<stop  offset="1" style="stop-color:#FDC70C"/>
	</linearGradient>
	<path style="fill:url(#SVGID_57_);" d="M344,376h16v16h-16V376z"/>
	
		<linearGradient id="SVGID_58_" gradientUnits="userSpaceOnUse" x1="-59.191" y1="569.625" x2="27.895" y2="569.625" gradientTransform="matrix(8 0 0 -8 455 4941)">
		<stop  offset="0" style="stop-color:#E93E3A"/>
		<stop  offset="0.353" style="stop-color:#ED683C"/>
		<stop  offset="0.703" style="stop-color:#F3903F"/>
		<stop  offset="1" style="stop-color:#FDC70C"/>
	</linearGradient>
	<path style="fill:url(#SVGID_58_);" d="M312,376h16v16h-16V376z"/>
	
		<linearGradient id="SVGID_59_" gradientUnits="userSpaceOnUse" x1="-59.191" y1="571.625" x2="27.895" y2="571.625" gradientTransform="matrix(8 0 0 -8 455 4941)">
		<stop  offset="0" style="stop-color:#E93E3A"/>
		<stop  offset="0.353" style="stop-color:#ED683C"/>
		<stop  offset="0.703" style="stop-color:#F3903F"/>
		<stop  offset="1" style="stop-color:#FDC70C"/>
	</linearGradient>
	<path style="fill:url(#SVGID_59_);" d="M328,360h16v16h-16V360z"/>
	
		<linearGradient id="SVGID_60_" gradientUnits="userSpaceOnUse" x1="-59.191" y1="565.625" x2="27.895" y2="565.625" gradientTransform="matrix(8 0 0 -8 455 4941)">
		<stop  offset="0" style="stop-color:#E93E3A"/>
		<stop  offset="0.353" style="stop-color:#ED683C"/>
		<stop  offset="0.703" style="stop-color:#F3903F"/>
		<stop  offset="1" style="stop-color:#FDC70C"/>
	</linearGradient>
	<path style="fill:url(#SVGID_60_);" d="M280,408h16v16h-16V408z"/>
	
		<linearGradient id="SVGID_61_" gradientUnits="userSpaceOnUse" x1="-59.191" y1="587.625" x2="27.895" y2="587.625" gradientTransform="matrix(8 0 0 -8 455 4941)">
		<stop  offset="0" style="stop-color:#E93E3A"/>
		<stop  offset="0.353" style="stop-color:#ED683C"/>
		<stop  offset="0.703" style="stop-color:#F3903F"/>
		<stop  offset="1" style="stop-color:#FDC70C"/>
	</linearGradient>
	<path style="fill:url(#SVGID_61_);" d="M136,232h16v16h-16V232z"/>
	
		<linearGradient id="SVGID_62_" gradientUnits="userSpaceOnUse" x1="-59.191" y1="565.625" x2="27.895" y2="565.625" gradientTransform="matrix(8 0 0 -8 455 4941)">
		<stop  offset="0" style="stop-color:#E93E3A"/>
		<stop  offset="0.353" style="stop-color:#ED683C"/>
		<stop  offset="0.703" style="stop-color:#F3903F"/>
		<stop  offset="1" style="stop-color:#FDC70C"/>
	</linearGradient>
	<path style="fill:url(#SVGID_62_);" d="M424,440h16v-48h-32v16h16V440z"/>
	
		<linearGradient id="SVGID_63_" gradientUnits="userSpaceOnUse" x1="-59.191" y1="571.625" x2="27.895" y2="571.625" gradientTransform="matrix(8 0 0 -8 455 4941)">
		<stop  offset="0" style="stop-color:#E93E3A"/>
		<stop  offset="0.353" style="stop-color:#ED683C"/>
		<stop  offset="0.703" style="stop-color:#F3903F"/>
		<stop  offset="1" style="stop-color:#FDC70C"/>
	</linearGradient>
	<path style="fill:url(#SVGID_63_);" d="M408,360h16v16h-16V360z"/>
	
		<linearGradient id="SVGID_64_" gradientUnits="userSpaceOnUse" x1="-59.191" y1="577.625" x2="27.895" y2="577.625" gradientTransform="matrix(8 0 0 -8 455 4941)">
		<stop  offset="0" style="stop-color:#E93E3A"/>
		<stop  offset="0.353" style="stop-color:#ED683C"/>
		<stop  offset="0.703" style="stop-color:#F3903F"/>
		<stop  offset="1" style="stop-color:#FDC70C"/>
	</linearGradient>
	<path style="fill:url(#SVGID_64_);" d="M440,344v-48h-16v32h-16v16H440z"/>
	
		<linearGradient id="SVGID_65_" gradientUnits="userSpaceOnUse" x1="-59.191" y1="583.625" x2="27.895" y2="583.625" gradientTransform="matrix(8 0 0 -8 455 4941)">
		<stop  offset="0" style="stop-color:#E93E3A"/>
		<stop  offset="0.353" style="stop-color:#ED683C"/>
		<stop  offset="0.703" style="stop-color:#F3903F"/>
		<stop  offset="1" style="stop-color:#FDC70C"/>
	</linearGradient>
	<path style="fill:url(#SVGID_65_);" d="M424,264h16v16h-16V264z"/>
	
		<linearGradient id="SVGID_66_" gradientUnits="userSpaceOnUse" x1="-59.191" y1="593.625" x2="27.895" y2="593.625" gradientTransform="matrix(8 0 0 -8 455 4941)">
		<stop  offset="0" style="stop-color:#E93E3A"/>
		<stop  offset="0.353" style="stop-color:#ED683C"/>
		<stop  offset="0.703" style="stop-color:#F3903F"/>
		<stop  offset="1" style="stop-color:#FDC70C"/>
	</linearGradient>
	<path style="fill:url(#SVGID_66_);" d="M440,136h-16v72h-32v-16h-32v32h64v24h16V136z"/>
	
		<linearGradient id="SVGID_67_" gradientUnits="userSpaceOnUse" x1="-59.191" y1="577.625" x2="27.895" y2="577.625" gradientTransform="matrix(8 0 0 -8 455 4941)">
		<stop  offset="0" style="stop-color:#E93E3A"/>
		<stop  offset="0.353" style="stop-color:#ED683C"/>
		<stop  offset="0.703" style="stop-color:#F3903F"/>
		<stop  offset="1" style="stop-color:#FDC70C"/>
	</linearGradient>
	<path style="fill:url(#SVGID_67_);" d="M272,352h48v-32h-16v-32h-48v32h16V352z"/>
	
		<linearGradient id="SVGID_68_" gradientUnits="userSpaceOnUse" x1="-59.191" y1="577.625" x2="27.895" y2="577.625" gradientTransform="matrix(8 0 0 -8 455 4941)">
		<stop  offset="0" style="stop-color:#E93E3A"/>
		<stop  offset="0.353" style="stop-color:#ED683C"/>
		<stop  offset="0.703" style="stop-color:#F3903F"/>
		<stop  offset="1" style="stop-color:#FDC70C"/>
	</linearGradient>
	<path style="fill:url(#SVGID_68_);" d="M136,296v-16H72v64h32v-16H88v-16h32v48h16v-16h32v-16h-16v-16h16v-16H136z"/>
	
		<linearGradient id="SVGID_69_" gradientUnits="userSpaceOnUse" x1="-59.191" y1="577.625" x2="27.895" y2="577.625" gradientTransform="matrix(8 0 0 -8 455 4941)">
		<stop  offset="0" style="stop-color:#E93E3A"/>
		<stop  offset="0.353" style="stop-color:#ED683C"/>
		<stop  offset="0.703" style="stop-color:#F3903F"/>
		<stop  offset="1" style="stop-color:#FDC70C"/>
	</linearGradient>
	<path style="fill:url(#SVGID_69_);" d="M408,296h-32v-16h-32v32h16v48h16v-16h16v-32h16V296z"/>
</g>
<g>
</g>
<g>
</g>
<g>
</g>
<g>
</g>
<g>
</g>
<g>
</g>
<g>
</g>
<g>
</g>
<g>
</g>
<g>
</g>
<g>
</g>
<g>
</g>
<g>
</g>
<g>
</g>
<g>
</g>
</svg>
